<svg id="Layer_1" data-name="Layer 1" xmlns="http://www.w3.org/2000/svg" width="340" height="60.94" viewBox="0 0 340 60.94"><defs><style>.cls-1{fill:#22474b;}</style></defs><path class="cls-1" d="M517.15,404.94a123,123,0,0,0,.84-16.22c0-4.08-.3-6.89-.84-8.15a2.33,2.33,0,0,0-2.22-1.73c-.3,0-.59.06-.77.06l-.18-.66c1.49-.6,4.19-1.86,5.92-2.76,2.4-1.25,6.29-3.35,7.43-3.35.54,0,1,.6,1,3.41,0,3.12-.12,8-.12,12,0,3.71.18,10,.18,12.27a13,13,0,0,1-3.71,9.7c-2.87,2.93-7.3,4.37-11,5l-.36-.66C514.93,412.24,516.43,409.31,517.15,404.94Zm.12-40.65a6.32,6.32,0,0,1,6.52-6.17,4.5,4.5,0,0,1,4.79,4.55c0,2.7-1.67,4.07-4,5.27-1.73.84-3.23,1.56-4.73,2.4l-.54-.12A9.86,9.86,0,0,1,517.27,364.29Z" transform="translate(-513.32 -353.99)"/><path class="cls-1" d="M540.26,375.31a20.71,20.71,0,0,1,9.58-2.34,18,18,0,0,1,11,3.65,13.25,13.25,0,0,1,5,10.72c0,5.21-3,9.88-8.14,12.51a18.23,18.23,0,0,1-8.2,2.1,19.67,19.67,0,0,1-11.62-3.6,12.89,12.89,0,0,1-5.26-10.59A14,14,0,0,1,540.26,375.31Zm8.32-1.08c-2.93,1.14-4.49,6.1-4.49,11.85,0,7.54,2.33,13.05,6,14.49,2.69-.84,4.31-6.11,4.31-12C554.39,380.87,552,374.89,548.58,374.23Z" transform="translate(-513.32 -353.99)"/><path class="cls-1" d="M568.82,398.17a12.73,12.73,0,0,0,.9-4.55c.11-1.43.17-3.17.17-5.32v-9.4c0-4.13-.06-8.38-.23-10.84-.18-3-.42-5.45-1.14-6.64a2.84,2.84,0,0,0-2.4-1.32,3.42,3.42,0,0,0-.78.06l-.23-.78c1.79-.72,5.74-1.91,8.14-3,2.21-1.14,5-2.4,6-2.4l.66.54a29.14,29.14,0,0,1,.36,4.73c0,3.65-.12,16.17-.12,27.42,0,5.15.12,8,.6,9.82a5.29,5.29,0,0,0,3.35,4.19l-.06.66c-1.67,0-6.64-.18-9.46-.18-3.23,0-7.66.18-8.44.18l-.06-.66A4.63,4.63,0,0,0,568.82,398.17Z" transform="translate(-513.32 -353.99)"/><path class="cls-1" d="M587.74,398.17a12.93,12.93,0,0,0,.89-4.55c.12-1.43.18-3.17.18-5.32v-9.4c0-4.13-.06-8.38-.24-10.84-.18-3-.41-5.45-1.13-6.64a2.84,2.84,0,0,0-2.4-1.32,3.42,3.42,0,0,0-.78.06l-.24-.78c1.8-.72,5.75-1.91,8.15-3,2.21-1.14,5-2.4,6-2.4l.66.54a29.14,29.14,0,0,1,.36,4.73c0,3.65-.12,16.17-.12,27.42,0,5.15.12,8,.6,9.82a5.29,5.29,0,0,0,3.35,4.19l-.06.66c-1.67,0-6.64-.18-9.46-.18-3.23,0-7.66.18-8.44.18l-.06-.66A4.63,4.63,0,0,0,587.74,398.17Z" transform="translate(-513.32 -353.99)"/><path class="cls-1" d="M606.18,414.34a5,5,0,0,1-3.48-4.73,4.68,4.68,0,0,1,4.85-4.79c2.52,0,3.71,1.38,4.37,3.83a8.18,8.18,0,0,0,1.38,3.29,7.25,7.25,0,0,0,2.69-2,28.63,28.63,0,0,0,3.78-5.81l.83-1.73c-1.79-2.28-3.47-5.93-5.92-10.78-2.7-5.33-4.79-9.28-6.71-12.45a16.11,16.11,0,0,0-2.57-3.3,6.61,6.61,0,0,0-2.58-1.61l.12-.66c1.68.06,5.75.18,8.92.18,3.42,0,8.68-.12,10.48-.18l.06.66a5.39,5.39,0,0,0-2.28,1.37,3.6,3.6,0,0,0-.89,2.52,8.65,8.65,0,0,0,.84,3.11c.89,2.1,2,4.37,3.23,6.71.78,1.61,1.61,3.29,2.15,4.61h.12a29.11,29.11,0,0,0,2.82-11.8,7.79,7.79,0,0,0-1.38-4.61,6.81,6.81,0,0,0-2.63-1.91l.06-.66c2.21.06,5.74.24,8.08.24,2.57,0,4.61-.12,7.24-.18l.06.66a15.53,15.53,0,0,0-4.37,3.89A43.91,43.91,0,0,0,630,387.1c-2.39,4.55-4.67,9.4-6.52,13.17l-2.22,4.61a25,25,0,0,1-5.27,7.78,9.05,9.05,0,0,1-5.92,2.28A10.16,10.16,0,0,1,606.18,414.34Z" transform="translate(-513.32 -353.99)"/><path class="cls-1" d="M672.21,396.62c3.35,0,6-1.74,8.26-4.19l.66.48c-2.45,4.19-7,9-13.77,9a15.55,15.55,0,0,1-9.4-2.76c-3.29-2.33-5.38-6.4-5.38-11.85A14.37,14.37,0,0,1,667.3,373c8,0,12.1,5.33,13.41,10.66A6.6,6.6,0,0,1,681,385a.9.9,0,0,1-.3.72l-16.76.36v.6C663.89,393.21,667.3,396.62,672.21,396.62ZM664,384.76c2.28,0,5.33-.18,7-.35-.29-4.85-1.49-9.4-3.65-10.18C665.27,375.72,664.13,379.32,664,384.76Z" transform="translate(-513.32 -353.99)"/><path class="cls-1" d="M704.48,396.92c-2.39,2.33-6.16,5-9.7,5a10.13,10.13,0,0,1-7.72-3.66c-2.21-2.57-3.23-5.74-3.23-9.81a15,15,0,0,1,4.61-11.26A17,17,0,0,1,699.69,373a12.22,12.22,0,0,1,4.67.9c0-1.68-.06-3.53-.12-5.33-.18-4.13-.72-5.69-1.43-6.7a4.54,4.54,0,0,0-3.78-1.68l-.18-.78a58.24,58.24,0,0,0,8.45-2.75c2.57-1.44,5.68-2.64,6.64-2.64l.54.3a13.13,13.13,0,0,1,.42,3.95c-.06,7.19-.24,17.9-.24,27.42v1.92c0,3.77.42,6.28,1.2,7.42a2.34,2.34,0,0,0,2,1.14,2.92,2.92,0,0,0,.72-.06l.12.66c-2.45,1.14-4.49,2-6.35,2.93-1.49.84-4.78,2.4-6.52,2.4l-.54-.36C705.08,401.35,704.78,400.09,704.48,396.92Zm-4.37-22.69a3.13,3.13,0,0,0-.84.12c-2.15,1.37-4.13,5.21-4.13,12a14.86,14.86,0,0,0,1.74,7.72,6.23,6.23,0,0,0,4.31,2.82,6.49,6.49,0,0,0,3.17-1.44v-19A5.62,5.62,0,0,0,700.11,374.23Z" transform="translate(-513.32 -353.99)"/><path class="cls-1" d="M722.09,398.35c.89-1.91,1.19-5.14,1.19-9.22s-.24-7.54-1-8.86a2.22,2.22,0,0,0-2-1.43,3.69,3.69,0,0,0-.84.06l-.18-.66c1.92-.78,4.73-2,6.89-3.17,2.57-1.5,5.5-2.94,6.46-2.94a.76.76,0,0,1,.72.6,40.5,40.5,0,0,1,.24,5c0,1.74-.12,5.15-.12,8.14v3.65a23.15,23.15,0,0,0,.84,7.49,5.15,5.15,0,0,0,3.23,3.71l-.06.66c-1.85,0-6.7-.18-9.4-.18-3,0-7.3.18-8.5.18l-.06-.66A4.66,4.66,0,0,0,722.09,398.35Zm.47-34.06a6.33,6.33,0,0,1,6.53-6.17,4.51,4.51,0,0,1,4.79,4.55c0,2.7-1.68,4.07-4,5.27-1.74.84-3.24,1.56-4.73,2.4l-.54-.12A9.8,9.8,0,0,1,722.56,364.29Z" transform="translate(-513.32 -353.99)"/><path class="cls-1" d="M743.88,400.09c-1.32-1.44-1.92-3.65-1.92-6.7,0-1.74.12-6.17.12-8.69,0-2.09,0-4.19-.06-6.58-1.56,0-3.29.06-4.37.12l-.12-.72a34.69,34.69,0,0,0,7.84-5.75,46.63,46.63,0,0,0,6.23-7.6l.9.18c-.12,2.15-.24,5.93-.24,8.56v.78c3.71,0,7.24,0,8.74-.06a26.46,26.46,0,0,1-.48,4.55c-1.8-.06-4.79-.06-8.2-.06v7.24a54.21,54.21,0,0,0,.36,8c.36,2.15,1.49,3.11,3.05,3.11a6.5,6.5,0,0,0,4.37-2l.78.72a21.55,21.55,0,0,1-5.75,5,12.29,12.29,0,0,1-6.34,1.86A6.33,6.33,0,0,1,743.88,400.09Z" transform="translate(-513.32 -353.99)"/><path class="cls-1" d="M765,398.35c.9-1.91,1.2-5.14,1.2-9.22s-.24-7.54-1-8.86a2.24,2.24,0,0,0-2-1.43,3.64,3.64,0,0,0-.83.06l-.18-.66c1.91-.78,4.73-2,6.88-3.17,2.58-1.5,5.51-2.94,6.47-2.94a.76.76,0,0,1,.72.6,40.5,40.5,0,0,1,.24,5c0,1.74-.12,5.15-.12,8.14v3.65a23.48,23.48,0,0,0,.83,7.49,5.17,5.17,0,0,0,3.24,3.71l-.06.66c-1.86,0-6.71-.18-9.4-.18-3,0-7.31.18-8.5.18l-.06-.66A4.67,4.67,0,0,0,765,398.35Zm.48-34.06a6.32,6.32,0,0,1,6.53-6.17,4.5,4.5,0,0,1,4.78,4.55c0,2.7-1.67,4.07-4,5.27-1.73.84-3.23,1.56-4.73,2.4l-.53-.12A9.8,9.8,0,0,1,765.43,364.29Z" transform="translate(-513.32 -353.99)"/><path class="cls-1" d="M788,375.31a20.74,20.74,0,0,1,9.58-2.34,18,18,0,0,1,11,3.65,13.25,13.25,0,0,1,5,10.72c0,5.21-3,9.88-8.14,12.51a18.19,18.19,0,0,1-8.2,2.1,19.62,19.62,0,0,1-11.61-3.6,12.87,12.87,0,0,1-5.27-10.59A14,14,0,0,1,788,375.31Zm8.32-1.08c-2.93,1.14-4.49,6.1-4.49,11.85,0,7.54,2.34,13.05,6,14.49,2.69-.84,4.31-6.11,4.31-12C802.13,380.87,799.73,374.89,796.32,374.23Z" transform="translate(-513.32 -353.99)"/><path class="cls-1" d="M819,398.17a13.24,13.24,0,0,0,.9-4.55c.12-1.43.18-3.17.18-5.32a28.28,28.28,0,0,0-.72-7.49,2.53,2.53,0,0,0-2.33-2,3.69,3.69,0,0,0-.78.06l-.18-.66c1.86-.78,5-2.16,7.36-3.47,2.1-1.2,4.85-2.64,6-2.64a.75.75,0,0,1,.72.54,36.6,36.6,0,0,1,.24,5.27v.78C834,375.9,837.81,373,841.4,373c4.19,0,6.71,2.16,7.37,6.53a67.47,67.47,0,0,1,.36,7.42c.06,3,.18,5.75.36,7.54a9.94,9.94,0,0,0,1.07,4,4.55,4.55,0,0,0,2.76,2.16l-.06.66c-2.82,0-5.75-.18-9-.18-2.94,0-6.65.12-8.8.18l-.06-.66a5.26,5.26,0,0,0,2.69-3.59,32.5,32.5,0,0,0,.66-8.08,30.9,30.9,0,0,0-.6-7.19,3.73,3.73,0,0,0-4-3.23,6.59,6.59,0,0,0-3.77,1.49v6.59c0,5,.18,8.2.6,9.82a5.35,5.35,0,0,0,3.23,4.19l-.06.66c-1.68,0-6.53-.18-9.34-.18-3.23,0-7.66.18-8.44.18l-.06-.66A4.4,4.4,0,0,0,819,398.17Z" transform="translate(-513.32 -353.99)"/></svg>